<svg width="1106" height="582" viewBox="0 0 1106 582" fill="none" xmlns="http://www.w3.org/2000/svg">
<path d="M224.949 417.048H226.295V413.343L223.917 416.184L224.949 417.048ZM224.949 491.717V493.064H226.295V491.717H224.949ZM39.6594 491.717V490.371H38.3131V491.717H39.6594ZM39.6594 580.214H38.3131V581.56H39.6594V580.214ZM318.977 580.214V581.56H320.323V580.214H318.977ZM318.977 148.793H320.323V147.447H318.977V148.793ZM224.949 148.793V147.447H223.603V148.793H224.949ZM224.949 183.085L223.907 183.938L226.295 186.857V183.085H224.949ZM160.789 231.759L160.769 233.105L160.789 233.105L160.81 233.105L160.789 231.759ZM138.112 140.256C61.4473 140.256 0.148951 205.727 0.148951 299.237H2.84164C2.84164 206.905 63.2261 142.949 138.112 142.949V140.256ZM0.148951 299.237C0.148951 392.187 60.3349 458.218 138.665 458.218V455.525C62.1261 455.525 2.84164 391.024 2.84164 299.237H0.148951ZM138.665 458.218C177.261 458.218 205.836 441.975 225.981 417.913L223.917 416.184C204.239 439.688 176.397 455.525 138.665 455.525V458.218ZM223.603 417.048V491.717H226.295V417.048H223.603ZM224.949 490.371H39.6594V493.064H224.949V490.371ZM38.3131 491.717V580.214H41.0058V491.717H38.3131ZM39.6594 581.56H318.977V578.867H39.6594V581.56ZM320.323 580.214V148.793H317.63V580.214H320.323ZM318.977 147.447H224.949V150.139H318.977V147.447ZM223.603 148.793V183.085H226.295V148.793H223.603ZM225.991 182.233C205.861 157.629 177.288 140.256 138.112 140.256V142.949C176.37 142.949 204.214 159.868 223.907 183.938L225.991 182.233ZM160.81 233.105C196.499 232.564 223.603 259.547 223.603 299.237H226.295C226.295 258.175 198.089 229.847 160.769 230.412L160.81 233.105ZM223.603 299.237C223.603 319.392 216.799 336.053 205.59 347.667C194.381 359.28 178.698 365.923 160.789 365.923V368.615C179.385 368.615 195.782 361.707 207.527 349.537C219.272 337.367 226.295 320.012 226.295 299.237H223.603ZM160.789 365.923C125.618 365.923 97.9755 339.461 97.9755 299.237H95.2828C95.2828 340.873 124.057 368.615 160.789 368.615V365.923ZM97.9755 299.237C97.9755 259.547 125.079 232.564 160.769 233.105L160.81 230.412C123.489 229.847 95.2828 258.175 95.2828 299.237H97.9755ZM582.159 238.949V240.295H583.505V238.949H582.159ZM582.159 148.793H583.505V147.447H582.159V148.793ZM385.254 148.793V147.447H383.908V148.793H385.254ZM385.254 453H383.908V454.346H385.254V453ZM479.282 453V454.346H480.628V453H479.282ZM479.282 238.949V237.603H477.935V238.949H479.282ZM583.505 238.949V148.793H580.813V238.949H583.505ZM582.159 147.447H385.254V150.139H582.159V147.447ZM383.908 148.793V453H386.6V148.793H383.908ZM385.254 454.346H479.282V451.654H385.254V454.346ZM480.628 453V238.949H477.935V453H480.628ZM479.282 240.295H582.159V237.603H479.282V240.295ZM720.724 453V454.346H722.071V453H720.724ZM720.724 148.793H722.071V147.447H720.724V148.793ZM626.697 148.793V147.447H625.35V148.793H626.697ZM626.697 453H625.35V454.346H626.697V453ZM673.711 0.321159C639.381 0.321159 613.182 22.3503 613.182 55.3185H615.875C615.875 24.1268 640.561 3.01385 673.711 3.01385V0.321159ZM613.182 55.3185C613.182 72.0075 619.698 85.9268 630.569 95.661C641.427 105.384 656.557 110.869 673.711 110.869V108.176C657.125 108.176 642.663 102.876 632.365 93.655C622.08 84.4454 615.875 71.2628 615.875 55.3185H613.182ZM673.711 110.869C707.505 110.869 733.686 88.8234 733.686 55.3185H730.993C730.993 87.0799 706.288 108.176 673.711 108.176V110.869ZM733.686 55.3185C733.686 22.3581 707.496 0.321159 673.711 0.321159V3.01385C706.298 3.01385 730.993 24.119 730.993 55.3185H733.686ZM722.071 453V148.793H719.378V453H722.071ZM720.724 147.447H626.697V150.139H720.724V147.447ZM625.35 148.793V453H628.043V148.793H625.35ZM626.697 454.346H720.724V451.654H626.697V454.346ZM881.146 183.639H879.8V187.563L882.209 184.465L881.146 183.639ZM881.146 148.793H882.492V147.447H881.146V148.793ZM787.118 148.793V147.447H785.772V148.793H787.118ZM787.118 580.214H785.772V581.56H787.118V580.214ZM881.146 580.214V581.56H882.492V580.214H881.146ZM881.146 420.367L882.19 419.517L879.8 416.58V420.367H881.146ZM945.306 231.759L945.286 233.105L945.306 233.105L945.326 233.105L945.306 231.759ZM967.983 140.256C928.258 140.256 899.672 157.627 880.083 182.812L882.209 184.465C901.338 159.871 929.168 142.949 967.983 142.949V140.256ZM882.492 183.639V148.793H879.8V183.639H882.492ZM881.146 147.447H787.118V150.139H881.146V147.447ZM785.772 148.793V580.214H788.465V148.793H785.772ZM787.118 581.56H881.146V578.867H787.118V581.56ZM882.492 580.214V420.367H879.8V580.214H882.492ZM880.102 421.217C899.703 445.299 928.288 461.537 967.43 461.537V458.844C929.138 458.844 901.306 443.002 882.19 419.517L880.102 421.217ZM967.43 461.537C1045.77 461.537 1105.95 395.496 1105.95 300.897H1103.25C1103.25 394.352 1043.96 458.844 967.43 458.844V461.537ZM1105.95 300.897C1105.95 205.737 1044.66 140.256 967.983 140.256V142.949C1042.86 142.949 1103.25 206.895 1103.25 300.897H1105.95ZM945.326 233.105C963.22 232.834 978.892 239.47 990.098 251.283C1001.31 263.101 1008.12 280.177 1008.12 300.897H1010.81C1010.81 279.58 1003.8 261.811 992.052 249.43C980.304 237.045 963.897 230.13 945.286 230.412L945.326 233.105ZM1008.12 300.897C1008.12 321.887 1001.17 338.964 989.894 350.783C978.615 362.603 962.933 369.241 945.306 369.241V371.934C963.63 371.934 980.029 365.022 991.842 352.642C1003.65 340.264 1010.81 322.495 1010.81 300.897H1008.12ZM945.306 369.241C927.398 369.241 911.719 362.6 900.513 350.786C889.305 338.971 882.492 321.895 882.492 300.897H879.8C879.8 322.487 886.814 340.257 898.56 352.639C910.308 365.024 926.709 371.934 945.306 371.934V369.241ZM882.492 300.897C882.492 280.177 889.304 263.101 900.513 251.283C911.719 239.47 927.392 232.834 945.286 233.105L945.326 230.412C926.715 230.13 910.308 237.045 898.56 249.43C886.816 261.811 879.8 279.58 879.8 300.897H882.492Z" fill="#292929"/>
</svg>
